<?xml version="1.0" encoding="UTF-8"?><svg id="Camada_1" xmlns="http://www.w3.org/2000/svg" viewBox="0 0 297.5 331.67"><defs><style>.cls-1{letter-spacing:-.03em;}.cls-2{fill:#fff;}.cls-3{letter-spacing:0em;}.cls-4{letter-spacing:0em;}.cls-5{letter-spacing:-.01em;}.cls-6{font-family:MyriadPro-Regular, 'Myriad Pro';font-size:33.35px;}.cls-6,.cls-7{fill:#22376d;}.cls-8{fill:#706f6f;}.cls-9{letter-spacing:0em;}.cls-10{letter-spacing:0em;}</style></defs><g><path class="cls-7" d="M210.48,140.29c14.18,.14,27.02,3.71,38.36,11.58,21.78,15.12,32.39,36.14,31.21,62.91-1.34,30.55-24,59.36-58.42,65.15-28.84,4.85-58.7-10.16-72.21-36.39-1.18-2.29-2.48-3-4.96-2.99-37.13,.08-74.25,.06-111.38,.05-7.47,0-11.27-3.8-11.27-11.29,0-72.65,0-145.29,0-217.94,0-7.54,3.74-11.32,11.23-11.32C71.91,.05,110.8,.08,149.68,0c3.8,0,6.73,1.25,9.36,3.93,15.83,16.06,31.69,32.08,47.6,48.05,2.66,2.67,3.89,5.63,3.88,9.46-.1,25.05-.05,50.1-.05,75.15v3.7ZM41.88,20.09V220.32h99.65c-4.68-37.47,18.62-68.01,48.95-77.25,.05-.46,.14-.97,.14-1.48,0-25.05,.03-50.11-.07-75.16,0-1.24-.83-2.76-1.74-3.68-13.43-13.61-26.97-27.11-40.4-40.71-1.44-1.46-2.89-1.98-4.88-1.98-32.79,.05-65.58,.04-98.36,.04h-3.28Zm168.61,240.56c27.09,.01,49.62-22.68,49.62-49.96,0-27.76-22.4-50.29-49.95-50.25-27.12,.04-49.33,22.8-49.33,50.57,0,26.93,22.71,49.63,49.66,49.64Z"/><path class="cls-2" d="M41.88,20.09h3.28c32.79,0,65.58,.02,98.36-.04,2,0,3.44,.52,4.88,1.98,13.44,13.6,26.97,27.11,40.4,40.71,.91,.92,1.74,2.44,1.74,3.68,.1,25.05,.07,50.11,.07,75.16,0,.51-.09,1.02-.14,1.48-30.33,9.24-53.63,39.78-48.95,77.25H41.88V20.09ZM115.99,110.3c14.68,0,29.36,0,44.03-.02,1.22,0,2.51-.04,3.66-.39,4.88-1.46,7.81-6.34,6.99-11.43-.74-4.61-4.99-8.19-9.91-8.2-29.56-.02-59.13-.02-88.69,0-6.3,0-10.59,4.13-10.56,10.1,.03,5.87,4.39,9.93,10.74,9.93,14.57,.01,29.15,0,43.72,0Zm-.02,40.09c14.68,0,29.36,0,44.03,0,6.34,0,10.71-4.07,10.75-9.93,.03-5.92-4.32-10.1-10.57-10.1-29.36,0-58.71,0-88.07,0-6.32,0-10.61,4.11-10.58,10.08,.02,5.88,4.39,9.95,10.72,9.95,14.57,.01,29.15,0,43.72,0Zm-29.72-80.19c5.06,0,10.12,.05,15.18-.01,5.53-.07,9.72-4.44,9.73-9.99,0-5.55-4.2-9.98-9.71-10.01-10.02-.06-20.04-.05-30.06,0-5.6,.03-9.82,4.3-9.88,9.83-.05,5.73,4.16,10.12,9.86,10.18,4.96,.05,9.92,.01,14.87,.01Zm44.63-20.03c-5.59,.05-9.84,4.49-9.78,10.24,.06,5.46,4.45,9.8,9.91,9.79,5.62,0,9.96-4.41,9.94-10.08-.02-5.65-4.43-10-10.07-9.95Zm39.86,10.16c.05-5.7-4.26-10.14-9.86-10.17-5.64-.02-9.98,4.33-9.99,10.02,0,5.52,4.28,9.95,9.7,10.01,5.67,.07,10.1-4.24,10.15-9.87Z"/><path class="cls-2" d="M210.49,260.64c-26.95-.01-49.66-22.71-49.66-49.64,0-27.77,22.2-50.54,49.33-50.57,27.55-.04,49.95,22.49,49.95,50.25,0,27.29-22.52,49.98-49.62,49.96Zm-9.94-40.09c0,3.56-.02,6.68,0,9.79,.05,5.84,4.24,10.21,9.8,10.25,5.78,.04,9.99-4.28,10.04-10.33,.02-3.19,0-6.38,0-9.72,3.53,0,6.62,.02,9.71,0,5.83-.05,10.11-4.25,10.15-9.9,.04-5.81-4.26-10.08-10.24-10.12-3.16-.02-6.32,0-9.62,0,0-3.57,.02-6.69,0-9.81-.05-5.89-4.21-10.2-9.82-10.23-5.8-.04-9.98,4.26-10.02,10.33-.02,3.19,0,6.38,0,9.72-3.63,0-6.83-.04-10.02,0-5.59,.08-9.8,4.33-9.84,9.88-.04,5.73,4.18,10.06,9.91,10.14,3.19,.04,6.37,0,9.95,0Z"/><path class="cls-8" d="M115.99,110.3c-14.57,0-29.15,0-43.72,0-6.35,0-10.71-4.06-10.74-9.93-.03-5.97,4.26-10.1,10.56-10.1,29.56,0,59.13-.01,88.69,0,4.92,0,9.17,3.59,9.91,8.2,.82,5.09-2.11,9.96-6.99,11.43-1.16,.35-2.44,.38-3.66,.39-14.68,.02-29.36,.02-44.03,.02Z"/><path class="cls-8" d="M115.97,150.39c-14.57,0-29.15,0-43.72,0-6.34,0-10.7-4.07-10.72-9.95-.02-5.96,4.27-10.07,10.58-10.08,29.36,0,58.71,0,88.07,0,6.26,0,10.6,4.18,10.57,10.1-.03,5.86-4.4,9.93-10.75,9.93-14.68,.01-29.36,0-44.03,0Z"/><path class="cls-8" d="M86.25,70.2c-4.96,0-9.92,.04-14.87-.01-5.7-.06-9.91-4.46-9.86-10.18,.05-5.53,4.27-9.8,9.88-9.83,10.02-.05,20.04-.06,30.06,0,5.51,.03,9.71,4.46,9.71,10.01,0,5.56-4.2,9.92-9.73,9.99-5.06,.07-10.12,.01-15.18,.01Z"/><path class="cls-8" d="M130.89,50.17c5.64-.05,10.05,4.3,10.07,9.95,.02,5.67-4.32,10.08-9.94,10.08-5.46,0-9.85-4.33-9.91-9.79-.06-5.74,4.18-10.19,9.78-10.24Z"/><path class="cls-8" d="M170.75,60.34c-.05,5.63-4.48,9.93-10.15,9.87-5.41-.06-9.7-4.49-9.7-10.01,.01-5.69,4.35-10.05,9.99-10.02,5.6,.02,9.91,4.47,9.86,10.17Z"/><path class="cls-8" d="M200.55,220.55c-3.57,0-6.76,.03-9.95,0-5.74-.08-9.95-4.41-9.91-10.14,.04-5.55,4.25-9.8,9.84-9.88,3.19-.05,6.39,0,10.02,0,0-3.34-.02-6.53,0-9.72,.04-6.06,4.23-10.36,10.02-10.33,5.61,.03,9.77,4.35,9.82,10.23,.03,3.12,0,6.24,0,9.81,3.3,0,6.46-.02,9.62,0,5.98,.04,10.28,4.31,10.24,10.12-.04,5.66-4.32,9.85-10.15,9.9-3.09,.03-6.18,0-9.71,0,0,3.34,.02,6.53,0,9.72-.05,6.04-4.26,10.37-10.04,10.33-5.56-.04-9.76-4.41-9.8-10.25-.03-3.12,0-6.24,0-9.79Z"/></g><text class="cls-6" transform="translate(0 323.33) scale(.93 1)"><tspan class="cls-4" x="0" y="0">C</tspan><tspan x="19.47" y="0">A</tspan><tspan class="cls-5" x="39.88" y="0">D</tspan><tspan class="cls-10" x="61.63" y="0">AST</tspan><tspan class="cls-9" x="115.05" y="0">R</tspan><tspan class="cls-10" x="133.16" y="0">AR P</tspan><tspan class="cls-3" x="196.32" y="0">R</tspan><tspan x="214.36" y="0">ODU</tspan><tspan class="cls-1" x="281.13" y="0">T</tspan><tspan x="296.8" y="0">O</tspan></text></svg>