<?xml version="1.0" encoding="utf-8"?>
<!-- Generator: Adobe Illustrator 26.5.0, SVG Export Plug-In . SVG Version: 6.00 Build 0)  -->
<svg version="1.1" id="Camada_1" xmlns="http://www.w3.org/2000/svg" xmlns:xlink="http://www.w3.org/1999/xlink" x="0px" y="0px"
	 viewBox="0 0 204 111" style="enable-background:new 0 0 204 111;" xml:space="preserve">
<style type="text/css">
	.st0{fill:#1B1B1B;}
</style>
<rect x="13.42" y="12.2" class="st0" width="12.61" height="87.26"/>
<rect x="32.4" y="12.2" class="st0" width="6.19" height="77.38"/>
<rect x="44.96" y="12.2" class="st0" width="6.19" height="77.38"/>
<rect x="57.53" y="12.2" class="st0" width="6.19" height="77.38"/>
<rect x="70.09" y="12.2" class="st0" width="11.52" height="77.38"/>
<rect x="87.99" y="12.2" class="st0" width="6.19" height="77.38"/>
<rect x="100.55" y="12.2" class="st0" width="6.19" height="77.38"/>
<rect x="113.11" y="12.2" class="st0" width="6.19" height="77.38"/>
<rect x="125.67" y="12.2" class="st0" width="6.19" height="77.38"/>
<rect x="138.24" y="12.2" class="st0" width="8.51" height="77.38"/>
<rect x="153.12" y="12.2" class="st0" width="6.19" height="77.38"/>
<rect x="165.68" y="12.2" class="st0" width="6.19" height="77.38"/>
<rect x="178.24" y="12.2" class="st0" width="11.56" height="87.26"/>
<path class="st0" d="M6.29-0.11h190.65c1.92,0,3.65,0.7,4.91,1.84c1.26,1.13,2.04,2.7,2.04,4.43v99.35c0,1.73-0.78,3.29-2.04,4.43
	c-1.26,1.13-3,1.84-4.91,1.84H6.29c-1.92,0-3.65-0.7-4.91-1.84c-1.26-1.13-2.04-2.7-2.04-4.43V6.15c0-1.73,0.78-3.29,2.04-4.43
	C2.63,0.59,4.37-0.11,6.29-0.11L6.29-0.11z M195.94,7.05H7.28v97.56h188.66V7.05z"/>
</svg>
