<?xml version="1.0" encoding="UTF-8"?><svg id="Camada_1" xmlns="http://www.w3.org/2000/svg" viewBox="0 0 511.81 511.82"><defs><style>.cls-1{fill:#706f6f;}.cls-2{fill:#2c2c2c;}.cls-3{fill:#22376d;}.cls-4{fill:#fefefe;}</style></defs><path class="cls-3" d="M269.9,0c6.55,1.31,13.15,2.43,19.65,3.95,61.91,14.46,107.51,66.74,113.54,130.11,7.55,79.23-49.63,150.8-128.39,160.67-15.74,1.97-31.6,.9-47.39,2.11-51.48,3.93-100.25,16.35-143.78,45.39-17.35,11.58-32,25.45-38.94,45.91-2.86,8.42-4.56,17.01-4.59,25.9-.04,11.82-.03,23.65-.02,35.47,.02,14.25,8.03,22.32,22.2,22.32,89.26,.01,178.52,0,267.79,.01,10.27,0,17.78,4.84,20.75,13.26,3.67,10.41-1.64,21.58-12.16,25.59-.91,.35-1.79,.75-2.69,1.13H50.98c-24.34-3.43-39.96-17.5-48.8-39.9-1.42-3.59-1-7.48-2.18-11.09v-48.98c.82-2,.82-4,0-6v-5c1.24-17.27,7.1-33.02,15.71-47.87,10.42-17.99,25.42-31.5,42.22-43.28,29.15-20.44,61.3-34.14,95.7-42.83,2.57-.65,5.22-1.06,8.08-2.33-1.17-2.53-3.41-4.01-5.28-5.69-28.63-25.77-44.97-57.86-48.79-96.09-4.29-42.87,8.2-80.6,36.3-113.15C165.22,24.94,192.17,9.71,223.72,2.2c5.68-1.35,11.52-.98,17.19-2.2,9.66,0,19.33,0,28.99,0Z"/><path class="cls-1" d="M407.85,511.82c-11.92-4.04-16.51-12.43-16.12-24.84,.52-16.96,.01-33.96,.22-50.93,.04-3.59-.98-4.32-4.4-4.28-17.98,.18-35.95,.11-53.93,.08-12.67-.02-21.62-8.2-21.72-19.77-.11-11.82,8.88-20.18,21.78-20.2,17.98-.03,35.96-.11,53.93,.08,3.51,.04,4.38-.84,4.34-4.35-.19-17.98-.11-35.95-.08-53.93,.02-12.9,8.39-21.89,20.21-21.77,11.57,.11,19.74,9.05,19.76,21.72,.03,17.98,.11,35.96-.08,53.93-.03,3.42,.7,4.44,4.29,4.4,17.14-.21,34.29-.09,51.43-.09,13.99,0,18.9,3.23,24.34,15.99v8c-2.26,11.62-8.89,17.28-21.08,17.43-16.97,.21-33.94,.03-50.91,.07-6.21,.02-6.45,.25-6.46,6.46-.03,15.14,0,30.28-.01,45.42,0,1.83,.03,3.66-.03,5.49-.35,12.19-5.85,18.83-17.47,21.08h-8Z"/><path class="cls-2" d="M0,405.86c1.73,2,1.32,4,0,6v-6Z"/><path class="cls-4" d="M255.93,39.99c59.5,.01,107.94,48.48,107.93,107.98-.01,59.48-48.51,107.95-107.98,107.94-59.47-.02-107.94-48.51-107.92-108,.01-59.49,48.48-107.94,107.98-107.92Z"/></svg>